<?xml version="1.0" encoding="UTF-8" standalone="no"?>
<svg
   xmlns:dc="http://purl.org/dc/elements/1.1/"
   xmlns:cc="http://creativecommons.org/ns#"
   xmlns:rdf="http://www.w3.org/1999/02/22-rdf-syntax-ns#"
   xmlns:svg="http://www.w3.org/2000/svg"
   xmlns="http://www.w3.org/2000/svg"
   xmlns:sodipodi="http://sodipodi.sourceforge.net/DTD/sodipodi-0.dtd"
   xmlns:inkscape="http://www.inkscape.org/namespaces/inkscape"
   width="210mm"
   height="297mm"
   viewBox="0 0 210 297"
   version="1.1"
   id="svg8"
   inkscape:version="1.0.1 (3bc2e813f5, 2020-09-07)"
   sodipodi:docname="ghost.svg">
  <defs
     id="defs2">
    <marker
       style="overflow:visible"
       id="Arrow1Lstart"
       refX="0.0"
       refY="0.0"
       orient="auto"
       inkscape:stockid="Arrow1Lstart"
       inkscape:isstock="true">
      <path
         transform="scale(0.8) translate(12.5,0)"
         style="fill-rule:evenodd;stroke:#000000;stroke-width:1pt;stroke-opacity:1;fill:#000000;fill-opacity:1"
         d="M 0.0,0.0 L 5.0,-5.0 L -12.5,0.0 L 5.0,5.0 L 0.0,0.0 z "
         id="path1184" />
    </marker>
    <inkscape:path-effect
       effect="skeletal"
       id="path-effect843"
       is_visible="true"
       lpeversion="1"
       pattern="M 0,5 C 0,2.24 2.24,0 5,0 7.76,0 10,2.24 10,5 10,7.76 7.76,10 5,10 2.24,10 0,7.76 0,5 Z"
       copytype="single_stretched"
       prop_scale="0.652375"
       scale_y_rel="false"
       spacing="0"
       normal_offset="0"
       tang_offset="0"
       prop_units="false"
       vertical_pattern="false"
       hide_knot="false"
       fuse_tolerance="0" />
    <inkscape:path-effect
       effect="skeletal"
       id="path-effect839"
       is_visible="true"
       lpeversion="1"
       pattern="M 0,5 C 0,2.24 2.24,0 5,0 7.76,0 10,2.24 10,5 10,7.76 7.76,10 5,10 2.24,10 0,7.76 0,5 Z"
       copytype="single_stretched"
       prop_scale="0.652375"
       scale_y_rel="false"
       spacing="0"
       normal_offset="0"
       tang_offset="0"
       prop_units="false"
       vertical_pattern="false"
       hide_knot="false"
       fuse_tolerance="0" />
    <inkscape:path-effect
       effect="skeletal"
       id="path-effect835"
       is_visible="true"
       lpeversion="1"
       pattern="M 0,5 C 0,2.24 2.24,0 5,0 7.76,0 10,2.24 10,5 10,7.76 7.76,10 5,10 2.24,10 0,7.76 0,5 Z"
       copytype="single_stretched"
       prop_scale="0.652375"
       scale_y_rel="false"
       spacing="0"
       normal_offset="0"
       tang_offset="0"
       prop_units="false"
       vertical_pattern="false"
       hide_knot="false"
       fuse_tolerance="0" />
  </defs>
  <sodipodi:namedview
     id="base"
     pagecolor="#ffffff"
     bordercolor="#666666"
     borderopacity="1.0"
     inkscape:pageopacity="0.0"
     inkscape:pageshadow="2"
     inkscape:zoom="0.13637945"
     inkscape:cx="-0.37578815"
     inkscape:cy="1026.2637"
     inkscape:document-units="mm"
     inkscape:current-layer="layer1"
     inkscape:document-rotation="0"
     showgrid="false"
     inkscape:window-width="1920"
     inkscape:window-height="1047"
     inkscape:window-x="0"
     inkscape:window-y="0"
     inkscape:window-maximized="1"
     inkscape:snap-bbox="true"
     inkscape:snap-global="true"
     inkscape:snap-nodes="false"
     inkscape:snap-others="false"
     inkscape:snap-midpoints="true"
     inkscape:bbox-paths="false"
     inkscape:snap-bbox-edge-midpoints="true"
     inkscape:snap-bbox-midpoints="true" />
  <metadata
     id="metadata5">
    <rdf:RDF>
      <cc:Work
         rdf:about="">
        <dc:format>image/svg+xml</dc:format>
        <dc:type
           rdf:resource="http://purl.org/dc/dcmitype/StillImage" />
        <dc:title />
      </cc:Work>
    </rdf:RDF>
  </metadata>
  <g
     inkscape:label="Layer 1"
     inkscape:groupmode="layer"
     id="layer1">
    <g
       id="g1001"
       inkscape:export-xdpi="96"
       inkscape:export-ydpi="96"
       transform="matrix(0.19105445,0,0,0.19105445,-32.26582,75.861047)">
      <path
         id="path984"
         style="fill:#000000;stroke:#000000;stroke-width:3.6;stroke-linecap:round;stroke-linejoin:round;stroke-miterlimit:4;stroke-dasharray:none;stroke-opacity:1"
         d="m 616.27819,317.34768 c -0.23998,-29.38157 30.21303,-82.23586 93.4943,-82.40127 65.12782,0.1279 93.07658,55.65257 92.36358,83.03178 l -92.92588,-0.63055 z m -0.005,-1.1358 H 802.1372 l -0.003,199.97621 -185.86076,0.0238 z m 185.86318,199.97816 c 0,0 -0.49932,4.22398 -5.13642,8.85027 -3.48182,3.4737 -7.91642,7.13268 -14.14472,7.22209 -9.13184,0.13109 -12.40051,-15.36254 -21.51332,-15.96594 -10.25259,-0.67887 -15.99262,14.86214 -26.26721,14.76682 -9.18372,-0.0852 -14.13903,-14.77861 -23.3225,-14.66975 -10.03334,0.11888 -15.06141,16.80836 -25.09379,16.6268 -7.83456,-0.14177 -14.53737,-14.66499 -22.1305,-16.60017 -11.95294,-3.04633 -24.86504,14.41333 -29.68827,15.69296 -3.03168,0.80432 -9.47216,1.7143 -14.74424,-3.3404 -5.33207,-5.11221 -3.78047,-12.56107 -3.78047,-12.56107"
         sodipodi:nodetypes="cccccccccccsssssssssc" />
      <path
         id="circle899"
         style="fill:#f9f9f9;fill-opacity:1;stroke:#000000;stroke-width:3.6;stroke-linecap:round;stroke-linejoin:bevel;stroke-miterlimit:4;stroke-dasharray:none;stroke-opacity:1"
         d="m 687.12952,328.36424 a 16.084293,16.084293 0 0 1 -16.08429,16.0843 16.084293,16.084293 0 0 1 -16.08429,-16.0843 16.084293,16.084293 0 0 1 16.08429,-16.08429 16.084293,16.084293 0 0 1 16.08429,16.08429 z m 44.16381,0 a 16.084293,16.084293 0 0 0 16.0843,16.0843 16.084293,16.084293 0 0 0 16.08429,-16.0843 16.084293,16.084293 0 0 0 -16.08429,-16.08429 16.084293,16.084293 0 0 0 -16.0843,16.08429 z" />
    </g>
  </g>
  <g
     inkscape:groupmode="layer"
     id="layer2"
     inkscape:label="Layer 2" />
</svg>
